<?xml version="1.0" encoding="UTF-8" standalone="no"?>
<!DOCTYPE svg PUBLIC "-//W3C//DTD SVG 1.1//EN"
 "http://www.w3.org/Graphics/SVG/1.1/DTD/svg11.dtd">
<!-- Generated by graphviz version 14.0.5 (20251129.0259)
 -->
<!-- Title: DomainModel Pages: 1 -->
<svg width="2024pt" height="768pt"
 viewBox="0.00 0.00 2024.00 768.00" xmlns="http://www.w3.org/2000/svg" xmlns:xlink="http://www.w3.org/1999/xlink">
<g id="graph0" class="graph" transform="scale(1 1) rotate(0) translate(4 764)">
<title>DomainModel</title>
<polygon fill="white" stroke="none" points="-4,4 -4,-764 2019.75,-764 2019.75,4 -4,4"/>
<!-- User -->
<g id="node1" class="node">
<title>User</title>
<polygon fill="lightblue" stroke="black" points="0,-273.5 0,-380.5 158,-380.5 158,-273.5 0,-273.5"/>
<text xml:space="preserve" text-anchor="middle" x="20.75" y="-321.95" font-family="Times New Roman,serif" font-size="14.00">User</text>
<polyline fill="none" stroke="black" points="41.5,-273.5 41.5,-380.5"/>
<text xml:space="preserve" text-anchor="middle" x="99.75" y="-363.2" font-family="Times New Roman,serif" font-size="14.00">id: String</text>
<text xml:space="preserve" text-anchor="middle" x="99.75" y="-346.7" font-family="Times New Roman,serif" font-size="14.00">name: String</text>
<text xml:space="preserve" text-anchor="middle" x="99.75" y="-330.2" font-family="Times New Roman,serif" font-size="14.00">email: String</text>
<text xml:space="preserve" text-anchor="middle" x="99.75" y="-313.7" font-family="Times New Roman,serif" font-size="14.00">password: String</text>
<text xml:space="preserve" text-anchor="middle" x="99.75" y="-297.2" font-family="Times New Roman,serif" font-size="14.00">description: String</text>
<text xml:space="preserve" text-anchor="middle" x="99.75" y="-280.7" font-family="Times New Roman,serif" font-size="14.00">...</text>
</g>
<!-- Artwork -->
<g id="node2" class="node">
<title>Artwork</title>
<polygon fill="lightblue" stroke="black" points="891.75,-363.5 891.75,-470.5 1070,-470.5 1070,-363.5 891.75,-363.5"/>
<text xml:space="preserve" text-anchor="middle" x="922.62" y="-411.95" font-family="Times New Roman,serif" font-size="14.00">Artwork</text>
<polyline fill="none" stroke="black" points="953.5,-363.5 953.5,-470.5"/>
<text xml:space="preserve" text-anchor="middle" x="1011.75" y="-453.2" font-family="Times New Roman,serif" font-size="14.00">id: String</text>
<text xml:space="preserve" text-anchor="middle" x="1011.75" y="-436.7" font-family="Times New Roman,serif" font-size="14.00">user_id: String</text>
<text xml:space="preserve" text-anchor="middle" x="1011.75" y="-420.2" font-family="Times New Roman,serif" font-size="14.00">title: String</text>
<text xml:space="preserve" text-anchor="middle" x="1011.75" y="-403.7" font-family="Times New Roman,serif" font-size="14.00">description: String</text>
<text xml:space="preserve" text-anchor="middle" x="1011.75" y="-387.2" font-family="Times New Roman,serif" font-size="14.00">type: String</text>
<text xml:space="preserve" text-anchor="middle" x="1011.75" y="-370.7" font-family="Times New Roman,serif" font-size="14.00">...</text>
</g>
<!-- User&#45;&gt;Artwork -->
<g id="edge1" class="edge">
<title>User&#45;&gt;Artwork</title>
<path fill="none" stroke="black" d="M158.5,-319.81C294.27,-309.59 580.78,-297.82 813.75,-354 835.91,-359.34 859.12,-366.85 880.93,-374.83"/>
<polygon fill="black" stroke="black" points="879.5,-378.03 890.1,-378.25 881.95,-371.48 879.5,-378.03"/>
<text xml:space="preserve" text-anchor="middle" x="554.5" y="-338.71" font-family="Times New Roman,serif" font-size="14.00">artworks</text>
<text xml:space="preserve" text-anchor="middle" x="554.5" y="-322.21" font-family="Times New Roman,serif" font-size="14.00">1:N</text>
</g>
<!-- Collection -->
<g id="node3" class="node">
<title>Collection</title>
<polygon fill="lightblue" stroke="black" points="1198.62,-597 1198.62,-671 1380.62,-671 1380.62,-597 1198.62,-597"/>
<text xml:space="preserve" text-anchor="middle" x="1234.75" y="-628.95" font-family="Times New Roman,serif" font-size="14.00">Collection</text>
<polyline fill="none" stroke="black" points="1270.88,-597 1270.88,-671"/>
<text xml:space="preserve" text-anchor="middle" x="1325.75" y="-653.7" font-family="Times New Roman,serif" font-size="14.00">id: String</text>
<text xml:space="preserve" text-anchor="middle" x="1325.75" y="-637.2" font-family="Times New Roman,serif" font-size="14.00">user_id: String</text>
<text xml:space="preserve" text-anchor="middle" x="1325.75" y="-620.7" font-family="Times New Roman,serif" font-size="14.00">name: String</text>
<text xml:space="preserve" text-anchor="middle" x="1325.75" y="-604.2" font-family="Times New Roman,serif" font-size="14.00">is_private: String</text>
</g>
<!-- User&#45;&gt;Collection -->
<g id="edge2" class="edge">
<title>User&#45;&gt;Collection</title>
<path fill="none" stroke="black" d="M100.34,-380.92C139.64,-474.71 235.46,-658 384.12,-658 384.12,-658 384.12,-658 981.88,-658 1050.38,-658 1127.22,-651.98 1186.86,-645.97"/>
<polygon fill="black" stroke="black" points="1187.07,-649.46 1196.66,-644.96 1186.36,-642.5 1187.07,-649.46"/>
<text xml:space="preserve" text-anchor="middle" x="710.38" y="-677.7" font-family="Times New Roman,serif" font-size="14.00">collections</text>
<text xml:space="preserve" text-anchor="middle" x="710.38" y="-661.2" font-family="Times New Roman,serif" font-size="14.00">1:N</text>
</g>
<!-- Comment -->
<g id="node5" class="node">
<title>Comment</title>
<polygon fill="lightblue" stroke="black" points="1180.25,-165.5 1180.25,-272.5 1399,-272.5 1399,-165.5 1180.25,-165.5"/>
<text xml:space="preserve" text-anchor="middle" x="1215.62" y="-213.95" font-family="Times New Roman,serif" font-size="14.00">Comment</text>
<polyline fill="none" stroke="black" points="1251,-165.5 1251,-272.5"/>
<text xml:space="preserve" text-anchor="middle" x="1325" y="-255.2" font-family="Times New Roman,serif" font-size="14.00">id: String</text>
<text xml:space="preserve" text-anchor="middle" x="1325" y="-238.7" font-family="Times New Roman,serif" font-size="14.00">user_id: String</text>
<text xml:space="preserve" text-anchor="middle" x="1325" y="-222.2" font-family="Times New Roman,serif" font-size="14.00">text: String</text>
<text xml:space="preserve" text-anchor="middle" x="1325" y="-205.7" font-family="Times New Roman,serif" font-size="14.00">parent_id: String</text>
<text xml:space="preserve" text-anchor="middle" x="1325" y="-189.2" font-family="Times New Roman,serif" font-size="14.00">commentable_id: String</text>
<text xml:space="preserve" text-anchor="middle" x="1325" y="-172.7" font-family="Times New Roman,serif" font-size="14.00">...</text>
</g>
<!-- User&#45;&gt;Comment -->
<g id="edge3" class="edge">
<title>User&#45;&gt;Comment</title>
<path fill="none" stroke="black" d="M127.96,-273.36C142.14,-260.67 158.58,-248.63 176,-241 376.9,-153.04 943.36,-191.34 1162.25,-205 1164.31,-205.13 1166.39,-205.27 1168.48,-205.41"/>
<polygon fill="black" stroke="black" points="1168.02,-208.89 1178.26,-206.16 1168.55,-201.91 1168.02,-208.89"/>
<text xml:space="preserve" text-anchor="middle" x="710.38" y="-207.04" font-family="Times New Roman,serif" font-size="14.00">comments</text>
<text xml:space="preserve" text-anchor="middle" x="710.38" y="-190.54" font-family="Times New Roman,serif" font-size="14.00">1:N</text>
</g>
<!-- Like -->
<g id="node6" class="node">
<title>Like</title>
<polygon fill="lightblue" stroke="black" points="1211.38,-87.25 1211.38,-144.75 1367.88,-144.75 1367.88,-87.25 1211.38,-87.25"/>
<text xml:space="preserve" text-anchor="middle" x="1231.75" y="-110.95" font-family="Times New Roman,serif" font-size="14.00">Like</text>
<polyline fill="none" stroke="black" points="1252.12,-87.25 1252.12,-144.75"/>
<text xml:space="preserve" text-anchor="middle" x="1310" y="-127.45" font-family="Times New Roman,serif" font-size="14.00">id: String</text>
<text xml:space="preserve" text-anchor="middle" x="1310" y="-110.95" font-family="Times New Roman,serif" font-size="14.00">user_id: String</text>
<text xml:space="preserve" text-anchor="middle" x="1310" y="-94.45" font-family="Times New Roman,serif" font-size="14.00">artwork_id: String</text>
</g>
<!-- User&#45;&gt;Like -->
<g id="edge4" class="edge">
<title>User&#45;&gt;Like</title>
<path fill="none" stroke="black" d="M115.78,-273.18C132.02,-252.22 152.8,-229.55 176,-214 211.81,-190 226.08,-192.99 268.25,-184 606.57,-111.84 1021,-110.13 1199.68,-113.43"/>
<polygon fill="black" stroke="black" points="1199.53,-116.93 1209.6,-113.63 1199.67,-109.93 1199.53,-116.93"/>
<text xml:space="preserve" text-anchor="middle" x="710.38" y="-153.46" font-family="Times New Roman,serif" font-size="14.00">likes</text>
<text xml:space="preserve" text-anchor="middle" x="710.38" y="-136.96" font-family="Times New Roman,serif" font-size="14.00">1:N</text>
</g>
<!-- Conversation -->
<g id="node7" class="node">
<title>Conversation</title>
<polygon fill="lightblue" stroke="black" points="268.25,-354.75 268.25,-445.25 502,-445.25 502,-354.75 268.25,-354.75"/>
<text xml:space="preserve" text-anchor="middle" x="312.25" y="-394.95" font-family="Times New Roman,serif" font-size="14.00">Conversation</text>
<polyline fill="none" stroke="black" points="356.25,-354.75 356.25,-445.25"/>
<text xml:space="preserve" text-anchor="middle" x="429.12" y="-427.95" font-family="Times New Roman,serif" font-size="14.00">id: String</text>
<text xml:space="preserve" text-anchor="middle" x="429.12" y="-411.45" font-family="Times New Roman,serif" font-size="14.00">type: String</text>
<text xml:space="preserve" text-anchor="middle" x="429.12" y="-394.95" font-family="Times New Roman,serif" font-size="14.00">title: String</text>
<text xml:space="preserve" text-anchor="middle" x="429.12" y="-378.45" font-family="Times New Roman,serif" font-size="14.00">avatar: String</text>
<text xml:space="preserve" text-anchor="middle" x="429.12" y="-361.95" font-family="Times New Roman,serif" font-size="14.00">last_message_id: String</text>
</g>
<!-- User&#45;&gt;Conversation -->
<g id="edge5" class="edge">
<title>User&#45;&gt;Conversation</title>
<path fill="none" stroke="black" stroke-dasharray="5,2" d="M158.37,-330.6C187.54,-333.16 220.71,-337.53 250.25,-345 256.96,-346.7 263.79,-348.67 270.61,-350.83"/>
<polygon fill="black" stroke="black" points="269.3,-354.08 279.89,-353.9 271.5,-347.44 269.3,-354.08"/>
<text xml:space="preserve" text-anchor="middle" x="213.12" y="-364.7" font-family="Times New Roman,serif" font-size="14.00">conversations</text>
<text xml:space="preserve" text-anchor="middle" x="213.12" y="-348.2" font-family="Times New Roman,serif" font-size="14.00">N:M</text>
</g>
<!-- Artwork&#45;&gt;User -->
<g id="edge6" class="edge">
<title>Artwork&#45;&gt;User</title>
<path fill="none" stroke="black" d="M936.81,-479.75C907.12,-517.15 864.03,-561.28 813.75,-582 728.8,-617.02 698.64,-588.73 607,-582 455.22,-570.86 407.54,-593.3 268.25,-532 198.37,-501.25 143.04,-430.37 110.92,-380.6"/>
<polygon fill="black" stroke="black" points="939.39,-482.13 942.76,-472.09 933.86,-477.84 939.39,-482.13"/>
<text xml:space="preserve" text-anchor="middle" x="554.5" y="-600.36" font-family="Times New Roman,serif" font-size="14.00">user</text>
<text xml:space="preserve" text-anchor="middle" x="554.5" y="-583.86" font-family="Times New Roman,serif" font-size="14.00">N:1</text>
</g>
<!-- Artwork&#45;&gt;Collection -->
<g id="edge8" class="edge">
<title>Artwork&#45;&gt;Collection</title>
<path fill="none" stroke="black" stroke-dasharray="5,2" d="M1002.07,-470.97C1019.19,-509.35 1047.49,-559.06 1088,-588 1096.78,-594.27 1141.94,-604.87 1187.19,-614.31"/>
<polygon fill="black" stroke="black" points="1186.39,-617.72 1196.89,-616.31 1187.8,-610.86 1186.39,-617.72"/>
<text xml:space="preserve" text-anchor="middle" x="1125.12" y="-628.41" font-family="Times New Roman,serif" font-size="14.00">collections</text>
<text xml:space="preserve" text-anchor="middle" x="1125.12" y="-611.91" font-family="Times New Roman,serif" font-size="14.00">N:M</text>
</g>
<!-- Tag -->
<g id="node4" class="node">
<title>Tag</title>
<polygon fill="lightblue" stroke="black" points="1228.25,-419.5 1228.25,-460.5 1351,-460.5 1351,-419.5 1228.25,-419.5"/>
<text xml:space="preserve" text-anchor="middle" x="1246.38" y="-434.95" font-family="Times New Roman,serif" font-size="14.00">Tag</text>
<polyline fill="none" stroke="black" points="1264.5,-419.5 1264.5,-460.5"/>
<text xml:space="preserve" text-anchor="middle" x="1307.75" y="-443.2" font-family="Times New Roman,serif" font-size="14.00">id: String</text>
<text xml:space="preserve" text-anchor="middle" x="1307.75" y="-426.7" font-family="Times New Roman,serif" font-size="14.00">name: String</text>
</g>
<!-- Artwork&#45;&gt;Tag -->
<g id="edge7" class="edge">
<title>Artwork&#45;&gt;Tag</title>
<path fill="none" stroke="black" stroke-dasharray="5,2" d="M1070.27,-447.55C1076.22,-448.91 1082.17,-450.09 1088,-451 1130.5,-457.64 1178.62,-455.33 1217.07,-451.15"/>
<polygon fill="black" stroke="black" points="1217.13,-454.67 1226.66,-450.04 1216.32,-447.72 1217.13,-454.67"/>
<text xml:space="preserve" text-anchor="middle" x="1125.12" y="-474.87" font-family="Times New Roman,serif" font-size="14.00">tags</text>
<text xml:space="preserve" text-anchor="middle" x="1125.12" y="-458.37" font-family="Times New Roman,serif" font-size="14.00">N:M</text>
</g>
<!-- Artwork&#45;&gt;Comment -->
<g id="edge9" class="edge">
<title>Artwork&#45;&gt;Comment</title>
<path fill="none" stroke="black" d="M1023.22,-363.22C1041.22,-342.87 1063.74,-321.01 1088,-306 1117.38,-287.82 1130.23,-295.96 1162.25,-283 1166.55,-281.26 1170.89,-279.43 1175.26,-277.53"/>
<polygon fill="black" stroke="black" points="1176.38,-280.87 1184.1,-273.61 1173.54,-274.47 1176.38,-280.87"/>
<text xml:space="preserve" text-anchor="middle" x="1125.12" y="-325.7" font-family="Times New Roman,serif" font-size="14.00">comments</text>
<text xml:space="preserve" text-anchor="middle" x="1125.12" y="-309.2" font-family="Times New Roman,serif" font-size="14.00">1:N</text>
</g>
<!-- Artwork&#45;&gt;Like -->
<g id="edge10" class="edge">
<title>Artwork&#45;&gt;Like</title>
<path fill="none" stroke="black" d="M1010.01,-363.08C1029.56,-328 1057.51,-282.22 1088,-246 1116.44,-212.22 1132.35,-212.49 1162.25,-180 1171.28,-170.19 1169.56,-163.97 1180.25,-156 1186.66,-151.22 1193.71,-146.96 1201.03,-143.17"/>
<polygon fill="black" stroke="black" points="1202.3,-146.45 1209.79,-138.95 1199.26,-140.14 1202.3,-146.45"/>
<text xml:space="preserve" text-anchor="middle" x="1125.12" y="-265.7" font-family="Times New Roman,serif" font-size="14.00">likes</text>
<text xml:space="preserve" text-anchor="middle" x="1125.12" y="-249.2" font-family="Times New Roman,serif" font-size="14.00">1:N</text>
</g>
<!-- Complaint -->
<g id="node9" class="node">
<title>Complaint</title>
<polygon fill="lightblue" stroke="black" points="1495,-165.5 1495,-272.5 1732.5,-272.5 1732.5,-165.5 1495,-165.5"/>
<text xml:space="preserve" text-anchor="middle" x="1531.88" y="-213.95" font-family="Times New Roman,serif" font-size="14.00">Complaint</text>
<polyline fill="none" stroke="black" points="1568.75,-165.5 1568.75,-272.5"/>
<text xml:space="preserve" text-anchor="middle" x="1650.62" y="-255.2" font-family="Times New Roman,serif" font-size="14.00">id: String</text>
<text xml:space="preserve" text-anchor="middle" x="1650.62" y="-238.7" font-family="Times New Roman,serif" font-size="14.00">complaint_type_id: String</text>
<text xml:space="preserve" text-anchor="middle" x="1650.62" y="-222.2" font-family="Times New Roman,serif" font-size="14.00">user_id: String</text>
<text xml:space="preserve" text-anchor="middle" x="1650.62" y="-205.7" font-family="Times New Roman,serif" font-size="14.00">complaintable_id: String</text>
<text xml:space="preserve" text-anchor="middle" x="1650.62" y="-189.2" font-family="Times New Roman,serif" font-size="14.00">complaintable_type: String</text>
<text xml:space="preserve" text-anchor="middle" x="1650.62" y="-172.7" font-family="Times New Roman,serif" font-size="14.00">...</text>
</g>
<!-- Artwork&#45;&gt;Complaint -->
<g id="edge11" class="edge">
<title>Artwork&#45;&gt;Complaint</title>
<path fill="none" stroke="black" d="M1044.99,-470.86C1058.4,-479.55 1073.06,-487.25 1088,-492 1159.55,-514.73 1321.21,-510.4 1399,-470 1479.35,-428.27 1542.02,-342.27 1578.18,-282.64"/>
<polygon fill="black" stroke="black" points="1581.07,-284.62 1583.19,-274.24 1575.06,-281.04 1581.07,-284.62"/>
<text xml:space="preserve" text-anchor="middle" x="1289.62" y="-525.41" font-family="Times New Roman,serif" font-size="14.00">complaints</text>
<text xml:space="preserve" text-anchor="middle" x="1289.62" y="-508.91" font-family="Times New Roman,serif" font-size="14.00">1:N</text>
</g>
<!-- Collection&#45;&gt;User -->
<g id="edge12" class="edge">
<title>Collection&#45;&gt;User</title>
<path fill="none" stroke="black" d="M1200.23,-675.85C1140.06,-700.54 1057.86,-727 981.88,-727 384.12,-727 384.12,-727 384.12,-727 212.27,-727 124.81,-490.13 93.63,-380.95"/>
<polygon fill="black" stroke="black" points="1201.54,-679.09 1209.42,-672.01 1198.85,-672.63 1201.54,-679.09"/>
<text xml:space="preserve" text-anchor="middle" x="710.38" y="-746.7" font-family="Times New Roman,serif" font-size="14.00">user</text>
<text xml:space="preserve" text-anchor="middle" x="710.38" y="-730.2" font-family="Times New Roman,serif" font-size="14.00">N:1</text>
</g>
<!-- Collection&#45;&gt;Artwork -->
<g id="edge13" class="edge">
<title>Collection&#45;&gt;Artwork</title>
<path fill="none" stroke="black" stroke-dasharray="5,2" d="M1240.08,-596.66C1217.43,-580.71 1189.5,-563.03 1162.25,-551 1131.09,-537.24 1117.25,-549.46 1088,-532 1065.34,-518.48 1044.6,-498.66 1027.58,-479.28"/>
<polygon fill="black" stroke="black" points="1030.41,-477.2 1021.26,-471.87 1025.09,-481.75 1030.41,-477.2"/>
<text xml:space="preserve" text-anchor="middle" x="1125.12" y="-570.7" font-family="Times New Roman,serif" font-size="14.00">artworks</text>
<text xml:space="preserve" text-anchor="middle" x="1125.12" y="-554.2" font-family="Times New Roman,serif" font-size="14.00">N:M</text>
</g>
<!-- Tag&#45;&gt;Artwork -->
<g id="edge14" class="edge">
<title>Tag&#45;&gt;Artwork</title>
<path fill="none" stroke="black" stroke-dasharray="5,2" d="M1227.95,-424.92C1207.24,-420.47 1183.87,-416.2 1162.25,-414 1129.42,-410.66 1121,-413.53 1088,-414 1085.95,-414.03 1083.87,-414.06 1081.78,-414.1"/>
<polygon fill="black" stroke="black" points="1081.91,-410.59 1071.98,-414.28 1082.05,-417.59 1081.91,-410.59"/>
<text xml:space="preserve" text-anchor="middle" x="1125.12" y="-433.7" font-family="Times New Roman,serif" font-size="14.00">artworks</text>
<text xml:space="preserve" text-anchor="middle" x="1125.12" y="-417.2" font-family="Times New Roman,serif" font-size="14.00">N:M</text>
</g>
<!-- Comment&#45;&gt;User -->
<g id="edge15" class="edge">
<title>Comment&#45;&gt;User</title>
<path fill="none" stroke="black" d="M1168.51,-224.94C1141.98,-226.44 1114.03,-228.15 1088,-230 682.14,-258.92 579.38,-256.7 176,-310 170.29,-310.75 164.41,-311.61 158.5,-312.52"/>
<polygon fill="black" stroke="black" points="1168.47,-228.45 1178.27,-224.4 1168.09,-221.46 1168.47,-228.45"/>
<text xml:space="preserve" text-anchor="middle" x="710.38" y="-282.31" font-family="Times New Roman,serif" font-size="14.00">user</text>
<text xml:space="preserve" text-anchor="middle" x="710.38" y="-265.81" font-family="Times New Roman,serif" font-size="14.00">N:1</text>
</g>
<!-- Comment&#45;&gt;Artwork -->
<g id="edge18" class="edge">
<title>Comment&#45;&gt;Artwork</title>
<path fill="none" stroke="black" d="M1240.19,-272.76C1218,-295.24 1190.4,-320.4 1162.25,-339 1147.35,-348.84 1114.48,-363.68 1080.83,-377.77"/>
<polygon fill="black" stroke="black" points="1079.66,-374.47 1071.77,-381.54 1082.35,-380.93 1079.66,-374.47"/>
<text xml:space="preserve" text-anchor="middle" x="1125.12" y="-392.4" font-family="Times New Roman,serif" font-size="14.00">commentable</text>
<text xml:space="preserve" text-anchor="middle" x="1125.12" y="-375.9" font-family="Times New Roman,serif" font-size="14.00">N:1</text>
</g>
<!-- Comment&#45;&gt;Comment -->
<g id="edge16" class="edge">
<title>Comment&#45;&gt;Comment</title>
<path fill="none" stroke="black" d="M1278.78,-283.54C1281.23,-288.17 1284.85,-291 1289.62,-291 1297.46,-291 1302.18,-283.38 1303.77,-272.69"/>
<polygon fill="black" stroke="black" points="1282.18,-282.69 1275.92,-274.14 1275.48,-284.73 1282.18,-282.69"/>
<text xml:space="preserve" text-anchor="middle" x="1289.62" y="-310.7" font-family="Times New Roman,serif" font-size="14.00">parent</text>
<text xml:space="preserve" text-anchor="middle" x="1289.62" y="-294.2" font-family="Times New Roman,serif" font-size="14.00">N:1</text>
</g>
<!-- Comment&#45;&gt;Comment -->
<g id="edge17" class="edge">
<title>Comment&#45;&gt;Comment</title>
<path fill="none" stroke="black" d="M1260.73,-272.8C1257.48,-299.44 1267.11,-324 1289.62,-324 1308.89,-324 1318.72,-306.03 1319.12,-284.15"/>
<polygon fill="black" stroke="black" points="1322.62,-284.12 1318.6,-274.32 1315.63,-284.49 1322.62,-284.12"/>
<text xml:space="preserve" text-anchor="middle" x="1289.62" y="-343.7" font-family="Times New Roman,serif" font-size="14.00">replies</text>
<text xml:space="preserve" text-anchor="middle" x="1289.62" y="-327.2" font-family="Times New Roman,serif" font-size="14.00">1:N</text>
</g>
<!-- Comment&#45;&gt;Complaint -->
<g id="edge19" class="edge">
<title>Comment&#45;&gt;Complaint</title>
<path fill="none" stroke="black" d="M1399.23,-219C1426.2,-219 1455.37,-219 1483.24,-219"/>
<polygon fill="black" stroke="black" points="1483.15,-222.5 1493.15,-219 1483.15,-215.5 1483.15,-222.5"/>
<text xml:space="preserve" text-anchor="middle" x="1447" y="-238.7" font-family="Times New Roman,serif" font-size="14.00">complaints</text>
<text xml:space="preserve" text-anchor="middle" x="1447" y="-222.2" font-family="Times New Roman,serif" font-size="14.00">1:N</text>
</g>
<!-- Like&#45;&gt;User -->
<g id="edge20" class="edge">
<title>Like&#45;&gt;User</title>
<path fill="none" stroke="black" d="M1200.5,-85.78C1139.8,-67.62 1056.88,-48 981.88,-48 384.12,-48 384.12,-48 384.12,-48 252.29,-48 152.85,-192.13 107.35,-273.21"/>
<polygon fill="black" stroke="black" points="1199.15,-89.02 1209.74,-88.59 1201.19,-82.33 1199.15,-89.02"/>
<text xml:space="preserve" text-anchor="middle" x="710.38" y="-67.7" font-family="Times New Roman,serif" font-size="14.00">user</text>
<text xml:space="preserve" text-anchor="middle" x="710.38" y="-51.2" font-family="Times New Roman,serif" font-size="14.00">N:1</text>
</g>
<!-- Like&#45;&gt;Artwork -->
<g id="edge21" class="edge">
<title>Like&#45;&gt;Artwork</title>
<path fill="none" stroke="black" d="M1199.73,-119.19C1154.49,-122.51 1105.43,-129.26 1088,-143 1019.89,-196.68 995.44,-299.9 986.7,-363.19"/>
<polygon fill="black" stroke="black" points="1199.88,-122.69 1209.62,-118.52 1199.41,-115.7 1199.88,-122.69"/>
<text xml:space="preserve" text-anchor="middle" x="1125.12" y="-162.7" font-family="Times New Roman,serif" font-size="14.00">artwork</text>
<text xml:space="preserve" text-anchor="middle" x="1125.12" y="-146.2" font-family="Times New Roman,serif" font-size="14.00">N:1</text>
</g>
<!-- Conversation&#45;&gt;User -->
<g id="edge22" class="edge">
<title>Conversation&#45;&gt;User</title>
<path fill="none" stroke="black" stroke-dasharray="5,2" d="M267.77,-395.61C237.43,-392.33 205.1,-386.9 176,-378 173.62,-377.27 171.22,-376.48 168.83,-375.64"/>
<polygon fill="black" stroke="black" points="170.34,-372.47 159.75,-372.18 167.85,-379.01 170.34,-372.47"/>
<text xml:space="preserve" text-anchor="middle" x="213.12" y="-413.01" font-family="Times New Roman,serif" font-size="14.00">users</text>
<text xml:space="preserve" text-anchor="middle" x="213.12" y="-396.51" font-family="Times New Roman,serif" font-size="14.00">N:M</text>
</g>
<!-- Message -->
<g id="node8" class="node">
<title>Message</title>
<polygon fill="lightblue" stroke="black" points="607,-363.5 607,-470.5 813.75,-470.5 813.75,-363.5 607,-363.5"/>
<text xml:space="preserve" text-anchor="middle" x="639" y="-411.95" font-family="Times New Roman,serif" font-size="14.00">Message</text>
<polyline fill="none" stroke="black" points="671,-363.5 671,-470.5"/>
<text xml:space="preserve" text-anchor="middle" x="742.38" y="-453.2" font-family="Times New Roman,serif" font-size="14.00">id: String</text>
<text xml:space="preserve" text-anchor="middle" x="742.38" y="-436.7" font-family="Times New Roman,serif" font-size="14.00">conversation_id: String</text>
<text xml:space="preserve" text-anchor="middle" x="742.38" y="-420.2" font-family="Times New Roman,serif" font-size="14.00">user_id: String</text>
<text xml:space="preserve" text-anchor="middle" x="742.38" y="-403.7" font-family="Times New Roman,serif" font-size="14.00">body: String</text>
<text xml:space="preserve" text-anchor="middle" x="742.38" y="-387.2" font-family="Times New Roman,serif" font-size="14.00">reply_to_id: String</text>
<text xml:space="preserve" text-anchor="middle" x="742.38" y="-370.7" font-family="Times New Roman,serif" font-size="14.00">...</text>
</g>
<!-- Conversation&#45;&gt;Message -->
<g id="edge23" class="edge">
<title>Conversation&#45;&gt;Message</title>
<path fill="none" stroke="black" d="M480.42,-445.63C493.46,-450.31 506.88,-454.32 520,-457 544.52,-462 570.8,-460.71 595.75,-456.36"/>
<polygon fill="black" stroke="black" points="596.08,-459.86 605.24,-454.53 594.75,-452.99 596.08,-459.86"/>
<text xml:space="preserve" text-anchor="middle" x="554.5" y="-479.91" font-family="Times New Roman,serif" font-size="14.00">messages</text>
<text xml:space="preserve" text-anchor="middle" x="554.5" y="-463.41" font-family="Times New Roman,serif" font-size="14.00">1:N</text>
</g>
<!-- Conversation&#45;&gt;Message -->
<g id="edge24" class="edge">
<title>Conversation&#45;&gt;Message</title>
<path fill="none" stroke="black" d="M513.66,-406.71C544.55,-408.33 577.17,-410.05 606.75,-411.6"/>
<polygon fill="black" stroke="black" points="514.05,-403.22 503.88,-406.19 513.68,-410.21 514.05,-403.22"/>
<text xml:space="preserve" text-anchor="middle" x="554.5" y="-430.22" font-family="Times New Roman,serif" font-size="14.00">lastMessage</text>
<text xml:space="preserve" text-anchor="middle" x="554.5" y="-413.72" font-family="Times New Roman,serif" font-size="14.00">N:1</text>
</g>
<!-- Message&#45;&gt;User -->
<g id="edge26" class="edge">
<title>Message&#45;&gt;User</title>
<path fill="none" stroke="black" d="M633.61,-476.75C619.48,-485.09 604.32,-492.37 589,-497 559.64,-505.87 550.56,-499.53 520,-497 440.36,-490.4 237.27,-466.95 176,-430 154.96,-417.31 135.65,-398.71 119.94,-380.8"/>
<polygon fill="black" stroke="black" points="635.24,-479.85 641.92,-471.63 631.57,-473.89 635.24,-479.85"/>
<text xml:space="preserve" text-anchor="middle" x="385.12" y="-514.86" font-family="Times New Roman,serif" font-size="14.00">user</text>
<text xml:space="preserve" text-anchor="middle" x="385.12" y="-498.36" font-family="Times New Roman,serif" font-size="14.00">N:1</text>
</g>
<!-- Message&#45;&gt;Artwork -->
<g id="edge29" class="edge">
<title>Message&#45;&gt;Artwork</title>
<path fill="none" stroke="black" d="M825.47,-417C847.48,-417 870.24,-417 891.29,-417"/>
<polygon fill="black" stroke="black" points="825.55,-413.5 815.55,-417 825.55,-420.5 825.55,-413.5"/>
<text xml:space="preserve" text-anchor="middle" x="852.75" y="-436.7" font-family="Times New Roman,serif" font-size="14.00">artwork</text>
<text xml:space="preserve" text-anchor="middle" x="852.75" y="-420.2" font-family="Times New Roman,serif" font-size="14.00">N:1</text>
</g>
<!-- Message&#45;&gt;Conversation -->
<g id="edge25" class="edge">
<title>Message&#45;&gt;Conversation</title>
<path fill="none" stroke="black" d="M595.6,-371.35C593.39,-370.86 591.19,-370.41 589,-370 561.01,-364.73 530.7,-365.68 502.26,-369.48"/>
<polygon fill="black" stroke="black" points="594.67,-374.73 605.22,-373.7 596.34,-367.93 594.67,-374.73"/>
<text xml:space="preserve" text-anchor="middle" x="554.5" y="-389.7" font-family="Times New Roman,serif" font-size="14.00">conversation</text>
<text xml:space="preserve" text-anchor="middle" x="554.5" y="-373.2" font-family="Times New Roman,serif" font-size="14.00">N:1</text>
</g>
<!-- Message&#45;&gt;Message -->
<g id="edge27" class="edge">
<title>Message&#45;&gt;Message</title>
<path fill="none" stroke="black" d="M700.56,-481.54C702.78,-486.17 706.05,-489 710.38,-489 717.47,-489 721.73,-481.38 723.17,-470.69"/>
<polygon fill="black" stroke="black" points="704,-480.87 697.98,-472.15 697.25,-482.72 704,-480.87"/>
<text xml:space="preserve" text-anchor="middle" x="710.38" y="-508.7" font-family="Times New Roman,serif" font-size="14.00">replyTo</text>
<text xml:space="preserve" text-anchor="middle" x="710.38" y="-492.2" font-family="Times New Roman,serif" font-size="14.00">N:1</text>
</g>
<!-- Message&#45;&gt;Message -->
<g id="edge28" class="edge">
<title>Message&#45;&gt;Message</title>
<path fill="none" stroke="black" d="M684.24,-470.8C681.29,-497.44 690.01,-522 710.38,-522 727.8,-522 736.69,-504.03 737.06,-482.15"/>
<polygon fill="black" stroke="black" points="740.56,-482.14 736.59,-472.32 733.57,-482.47 740.56,-482.14"/>
<text xml:space="preserve" text-anchor="middle" x="710.38" y="-541.7" font-family="Times New Roman,serif" font-size="14.00">replies</text>
<text xml:space="preserve" text-anchor="middle" x="710.38" y="-525.2" font-family="Times New Roman,serif" font-size="14.00">1:N</text>
</g>
<!-- Complaint&#45;&gt;User -->
<g id="edge31" class="edge">
<title>Complaint&#45;&gt;User</title>
<path fill="none" stroke="black" d="M1562.72,-156.6C1504.76,-91.87 1402.75,0 1290.62,0 384.12,0 384.12,0 384.12,0 282.07,0 243.47,-20.44 176,-97 131.09,-147.97 105.15,-222.93 91.82,-273.28"/>
<polygon fill="black" stroke="black" points="1560.02,-158.83 1569.26,-164.01 1565.27,-154.2 1560.02,-158.83"/>
<text xml:space="preserve" text-anchor="middle" x="852.75" y="-19.7" font-family="Times New Roman,serif" font-size="14.00">user</text>
<text xml:space="preserve" text-anchor="middle" x="852.75" y="-3.2" font-family="Times New Roman,serif" font-size="14.00">N:1</text>
</g>
<!-- ComplaintType -->
<g id="node10" class="node">
<title>ComplaintType</title>
<polygon fill="lightblue" stroke="black" points="1828.5,-190.25 1828.5,-247.75 2015.75,-247.75 2015.75,-190.25 1828.5,-190.25"/>
<text xml:space="preserve" text-anchor="middle" x="1878.88" y="-213.95" font-family="Times New Roman,serif" font-size="14.00">ComplaintType</text>
<polyline fill="none" stroke="black" points="1929.25,-190.25 1929.25,-247.75"/>
<text xml:space="preserve" text-anchor="middle" x="1972.5" y="-230.45" font-family="Times New Roman,serif" font-size="14.00">id: String</text>
<text xml:space="preserve" text-anchor="middle" x="1972.5" y="-213.95" font-family="Times New Roman,serif" font-size="14.00">slug: String</text>
<text xml:space="preserve" text-anchor="middle" x="1972.5" y="-197.45" font-family="Times New Roman,serif" font-size="14.00">name: String</text>
</g>
<!-- Complaint&#45;&gt;ComplaintType -->
<g id="edge30" class="edge">
<title>Complaint&#45;&gt;ComplaintType</title>
<path fill="none" stroke="black" d="M1744.24,-225.08C1766.35,-225.51 1789.08,-225.58 1810.5,-225 1816.27,-224.84 1822.2,-224.64 1828.19,-224.41"/>
<polygon fill="black" stroke="black" points="1744.34,-221.58 1734.26,-224.85 1744.18,-228.58 1744.34,-221.58"/>
<text xml:space="preserve" text-anchor="middle" x="1780.5" y="-245.12" font-family="Times New Roman,serif" font-size="14.00">type</text>
<text xml:space="preserve" text-anchor="middle" x="1780.5" y="-228.62" font-family="Times New Roman,serif" font-size="14.00">N:1</text>
</g>
<!-- ComplaintType&#45;&gt;Complaint -->
<g id="edge32" class="edge">
<title>ComplaintType&#45;&gt;Complaint</title>
<path fill="none" stroke="black" d="M1828.26,-191.02C1822.28,-189.83 1816.33,-188.8 1810.5,-188 1788.99,-185.04 1766.2,-185.43 1744.06,-187.68"/>
<polygon fill="black" stroke="black" points="1743.93,-184.18 1734.4,-188.81 1744.74,-191.13 1743.93,-184.18"/>
<text xml:space="preserve" text-anchor="middle" x="1780.5" y="-207.7" font-family="Times New Roman,serif" font-size="14.00">complaints</text>
<text xml:space="preserve" text-anchor="middle" x="1780.5" y="-191.2" font-family="Times New Roman,serif" font-size="14.00">1:N</text>
</g>
</g>
</svg>
