<svg width="2100" height="366" viewBox="0 0 2100 366" fill="none" xmlns="http://www.w3.org/2000/svg">
<path d="M45.5685 271.986C42.3288 271.986 39.4939 270.885 37.0641 268.683C34.8367 266.48 33.723 263.678 33.723 260.274V49.156C33.723 45.9526 34.8367 43.2499 37.0641 41.0476C39.4939 38.6451 42.3288 37.4438 45.5685 37.4438C48.8084 37.4438 51.5419 38.6451 53.7693 41.0476C56.1991 43.2499 57.4141 45.9526 57.4141 49.156V249.763H176.173C179.413 249.763 182.146 250.864 184.374 253.066C186.804 255.068 188.018 257.671 188.018 260.874C188.018 264.078 186.804 266.781 184.374 268.983C182.146 270.985 179.413 271.986 176.173 271.986H45.5685ZM239.596 271.986C235.951 271.986 233.015 270.985 230.788 268.983C228.763 266.781 227.75 263.878 227.75 260.274V119.429C227.75 115.825 228.763 113.022 230.788 111.02C233.015 108.817 235.951 107.717 239.596 107.717C243.038 107.717 245.772 108.817 247.796 111.02C250.024 113.022 251.138 115.825 251.138 119.429V260.274C251.138 263.878 250.024 266.781 247.796 268.983C245.772 270.985 243.038 271.986 239.596 271.986ZM239.292 76.4842C234.838 76.4842 230.99 74.8822 227.75 71.679C224.511 68.4759 222.89 64.5719 222.89 59.9671C222.89 54.9619 224.511 51.0579 227.75 48.255C231.193 45.252 235.141 43.7504 239.596 43.7504C243.848 43.7504 247.594 45.252 250.834 48.255C254.276 51.0579 255.997 54.9619 255.997 59.9671C255.997 64.5719 254.378 68.4759 251.138 71.679C247.898 74.8822 243.95 76.4842 239.292 76.4842ZM394.821 273.488C379.027 273.488 364.752 269.884 351.996 262.676C339.441 255.469 329.418 245.659 321.926 233.246C314.636 220.633 310.89 206.518 310.688 190.902V49.156C310.688 45.5522 311.701 42.7494 313.725 40.7473C315.952 38.545 318.889 37.4438 322.534 37.4438C325.976 37.4438 328.709 38.545 330.734 40.7473C332.962 42.7494 334.075 45.5522 334.075 49.156V137.447C340.757 128.037 349.565 120.529 360.5 114.924C371.637 109.118 383.988 106.215 397.555 106.215C413.147 106.215 427.118 109.919 439.47 117.326C451.822 124.534 461.541 134.444 468.628 147.057C475.918 159.67 479.562 173.884 479.562 189.701C479.562 205.717 475.817 220.032 468.324 232.645C461.035 245.259 451.012 255.269 438.255 262.676C425.498 269.884 411.021 273.488 394.821 273.488ZM394.821 252.466C406.566 252.466 417.095 249.763 426.41 244.358C435.724 238.752 443.013 231.244 448.278 221.834C453.745 212.424 456.479 201.713 456.479 189.701C456.479 177.889 453.745 167.278 448.278 157.868C443.013 148.258 435.724 140.75 426.41 135.345C417.095 129.939 406.566 127.236 394.821 127.236C383.28 127.236 372.852 129.939 363.537 135.345C354.223 140.75 346.933 148.258 341.669 157.868C336.404 167.278 333.771 177.889 333.771 189.701C333.771 201.713 336.404 212.424 341.669 221.834C346.933 231.244 354.223 238.752 363.537 244.358C372.852 249.763 383.28 252.466 394.821 252.466ZM535.155 170.781C535.762 158.369 539.002 147.257 544.874 137.447C550.949 127.637 558.745 119.929 568.261 114.323C577.981 108.717 588.713 105.915 600.457 105.915C609.772 105.915 616.959 107.216 622.022 109.818C627.084 112.421 629.008 116.225 627.793 121.23C626.983 124.234 625.565 126.236 623.541 127.236C621.718 128.238 619.39 128.638 616.555 128.438C613.923 128.238 610.885 128.037 607.442 127.837C596.103 126.836 585.979 128.037 577.069 131.441C568.363 134.644 561.377 139.649 556.112 146.456C551.05 153.263 548.519 161.372 548.519 170.781H535.155ZM536.977 271.986C533.332 271.986 530.498 270.985 528.473 268.983C526.448 266.981 525.436 264.178 525.436 260.574V119.128C525.436 115.524 526.448 112.722 528.473 110.719C530.498 108.717 533.332 107.717 536.977 107.717C540.622 107.717 543.457 108.717 545.482 110.719C547.506 112.722 548.519 115.524 548.519 119.128V260.574C548.519 264.178 547.506 266.981 545.482 268.983C543.457 270.985 540.622 271.986 536.977 271.986ZM725.582 273.488C709.993 273.488 696.022 269.884 683.67 262.676C671.318 255.269 661.497 245.259 654.208 232.645C647.121 220.032 643.577 205.818 643.577 190.001C643.577 173.985 647.222 159.67 654.512 147.057C662.003 134.444 672.128 124.534 684.885 117.326C697.641 109.919 712.021 106.215 728.017 106.215C744.012 106.215 758.285 109.919 770.842 117.326C783.599 124.534 793.622 134.444 800.912 147.057C808.4 159.67 812.252 173.985 812.451 190.001L803.033 197.209C803.033 211.624 799.595 224.637 792.711 236.249C786.027 247.661 776.815 256.77 765.069 263.577C753.53 270.184 740.368 273.488 725.582 273.488ZM728.017 252.466C739.762 252.466 750.184 249.763 759.296 244.358C768.614 238.952 775.904 231.544 781.164 222.135C786.632 212.525 789.365 201.814 789.365 190.001C789.365 177.989 786.632 167.278 781.164 157.868C775.904 148.459 768.614 141.051 759.296 135.645C750.184 130.04 739.762 127.236 728.017 127.236C716.47 127.236 706.045 130.04 696.73 135.645C687.416 141.051 680.025 148.459 674.558 157.868C669.091 167.278 666.357 177.989 666.357 190.001C666.357 201.814 669.091 212.525 674.558 222.135C680.025 231.544 687.416 238.952 696.73 244.358C706.045 249.763 716.47 252.466 728.017 252.466ZM800.606 271.986C797.167 271.986 794.327 270.985 792.099 268.983C789.878 266.781 788.76 263.978 788.76 260.574V209.221L794.533 185.497L812.451 190.001V260.574C812.451 263.978 811.34 266.781 809.112 268.983C806.884 270.985 804.051 271.986 800.606 271.986ZM867.656 170.781C868.268 158.369 871.507 147.257 877.38 137.447C883.452 127.637 891.247 119.929 900.765 114.323C910.482 108.717 921.217 105.915 932.962 105.915C942.274 105.915 949.464 107.216 954.525 109.818C959.586 112.421 961.508 116.225 960.298 121.23C959.487 124.234 958.07 126.236 956.041 127.236C954.219 128.238 951.891 128.638 949.058 128.438C946.424 128.238 943.391 128.037 939.946 127.837C928.606 126.836 918.483 128.037 909.571 131.441C900.865 134.644 893.881 139.649 888.613 146.456C883.552 153.263 881.025 161.372 881.025 170.781H867.656ZM869.478 271.986C865.834 271.986 863 270.985 860.979 268.983C858.95 266.981 857.939 264.178 857.939 260.574V119.128C857.939 115.524 858.95 112.722 860.979 110.719C863 108.717 865.834 107.717 869.478 107.717C873.123 107.717 875.956 108.717 877.985 110.719C880.007 112.722 881.025 115.524 881.025 119.128V260.574C881.025 264.178 880.007 266.981 877.985 268.983C875.956 270.985 873.123 271.986 869.478 271.986ZM1025.6 343.46C1023.98 343.46 1022.16 343.06 1020.13 342.259C1013.25 339.255 1011.32 334.451 1014.36 327.844L1112.47 114.023C1115.51 107.616 1120.36 105.814 1127.05 108.618C1133.93 111.42 1135.85 116.125 1132.82 122.732L1034.41 336.553C1032.38 341.158 1029.45 343.46 1025.6 343.46ZM1059.31 266.881C1056.28 268.282 1053.45 268.583 1050.81 267.782C1048.18 266.781 1046.05 264.778 1044.43 261.775L976.699 123.032C975.283 120.029 975.076 117.226 976.094 114.623C977.105 112.021 979.127 110.019 982.167 108.618C985.206 107.216 988.039 107.016 990.673 108.016C993.3 108.817 995.329 110.719 996.746 113.723L1063.26 252.466C1064.89 255.469 1065.39 258.272 1064.78 260.874C1064.17 263.477 1062.35 265.48 1059.31 266.881Z" fill="#A337C0"/>
<path d="M1267.78 291.672C1254.82 291.672 1242.77 289.871 1231.64 286.267C1220.71 282.463 1211.19 277.158 1203.09 270.35C1194.99 263.543 1188.81 255.636 1184.56 246.626C1182.94 243.422 1182.84 240.52 1184.26 237.917C1185.87 235.114 1188.51 233.212 1192.15 232.211C1194.99 231.41 1197.72 231.71 1200.35 233.112C1203.19 234.513 1205.31 236.615 1206.73 239.418C1209.77 245.224 1214.23 250.43 1220.09 255.034C1225.97 259.639 1232.96 263.243 1241.06 265.846C1249.15 268.248 1258.06 269.449 1267.78 269.449C1278.52 269.449 1288.03 267.748 1296.33 264.344C1304.63 260.74 1311.11 255.636 1315.77 249.029C1320.63 242.222 1323.06 234.013 1323.06 224.403C1323.06 212.191 1318.51 201.679 1309.4 192.87C1300.28 184.061 1286 178.455 1266.57 176.053C1242.88 173.25 1224.35 166.043 1210.98 154.431C1197.62 142.618 1190.93 128.203 1190.93 111.186C1190.93 98.9734 1194.18 88.3623 1200.66 79.353C1207.34 70.3439 1216.45 63.4367 1227.99 58.6318C1239.53 53.6266 1252.8 51.1241 1267.78 51.1241C1278.92 51.1241 1289.04 52.9259 1298.16 56.5296C1307.27 59.9331 1315.16 64.5379 1321.85 70.3439C1328.73 75.9499 1334.3 82.1557 1338.55 88.9633C1340.58 92.1665 1341.18 95.2698 1340.38 98.2724C1339.76 101.276 1338.05 103.578 1335.21 105.18C1332.18 106.581 1329.04 106.781 1325.8 105.78C1322.76 104.779 1320.43 102.878 1318.81 100.074C1315.77 95.4697 1311.92 91.1657 1307.27 87.1615C1302.81 82.9567 1297.34 79.6536 1290.87 77.2513C1284.39 74.8484 1276.59 73.547 1267.48 73.3471C1251.48 73.3471 1238.62 76.7502 1228.91 83.5578C1219.18 90.1641 1214.33 99.8744 1214.33 112.688C1214.33 119.495 1216.15 125.801 1219.79 131.607C1223.44 137.213 1229.41 142.118 1237.71 146.323C1246.22 150.327 1257.56 153.329 1271.73 155.332C1297.04 158.936 1315.77 166.643 1327.92 178.455C1340.27 190.067 1346.45 205.283 1346.45 224.103C1346.45 234.914 1344.43 244.524 1340.38 252.932C1336.53 261.341 1330.96 268.448 1323.67 274.254C1316.58 279.86 1308.18 284.165 1298.46 287.168C1288.94 290.171 1278.71 291.672 1267.78 291.672ZM1457.95 288.669C1447.22 288.669 1437.6 286.167 1429.1 281.161C1420.8 276.156 1414.21 269.349 1409.36 260.741C1404.49 251.931 1402.07 241.921 1402.07 230.71V83.8576C1402.07 80.4545 1403.08 77.6511 1405.1 75.4495C1407.33 73.2472 1410.16 72.1456 1413.61 72.1456C1417.05 72.1456 1419.88 73.2472 1422.11 75.4495C1424.34 77.6511 1425.45 80.4545 1425.45 83.8576V230.71C1425.45 240.92 1428.49 249.328 1434.56 255.935C1440.64 262.342 1448.44 265.546 1457.95 265.546H1466.15C1469.39 265.546 1472.02 266.646 1474.05 268.849C1476.07 271.051 1477.08 273.854 1477.08 277.258C1477.08 280.661 1475.87 283.464 1473.44 285.666C1471.01 287.668 1467.97 288.669 1464.33 288.669H1457.95ZM1382.32 150.527C1379.29 150.527 1376.75 149.626 1374.73 147.824C1372.7 145.822 1371.69 143.419 1371.69 140.617C1371.69 137.613 1372.7 135.211 1374.73 133.409C1376.75 131.407 1379.29 130.406 1382.32 130.406H1459.77C1462.81 130.406 1465.34 131.407 1467.37 133.409C1469.39 135.211 1470.41 137.613 1470.41 140.617C1470.41 143.419 1469.39 145.822 1467.37 147.824C1465.34 149.626 1462.81 150.527 1459.77 150.527H1382.32ZM1524.88 187.464C1525.48 175.052 1528.72 163.941 1534.59 154.13C1540.67 144.32 1548.47 136.612 1557.99 131.006C1567.7 125.401 1578.43 122.598 1590.18 122.598C1599.5 122.598 1606.68 123.899 1611.75 126.502C1616.81 129.104 1618.73 132.909 1617.51 137.914C1616.7 140.917 1615.28 142.919 1613.26 143.92C1611.44 144.921 1609.11 145.321 1606.28 145.121C1603.65 144.921 1600.61 144.721 1597.17 144.521C1585.83 143.519 1575.7 144.721 1566.79 148.124C1558.09 151.328 1551.1 156.333 1545.83 163.14C1540.77 169.946 1538.24 178.055 1538.24 187.464H1524.88ZM1526.7 288.669C1523.06 288.669 1520.22 287.668 1518.19 285.666C1516.17 283.664 1515.15 280.861 1515.15 277.258V135.811C1515.15 132.208 1516.17 129.405 1518.19 127.402C1520.22 125.401 1523.06 124.4 1526.7 124.4C1530.34 124.4 1533.18 125.401 1535.21 127.402C1537.23 129.405 1538.24 132.208 1538.24 135.811V277.258C1538.24 280.861 1537.23 283.664 1535.21 285.666C1533.18 287.668 1530.34 288.669 1526.7 288.669Z" fill="#F9EA8A"/>
<g filter="url(#filter0_f_525_334)">
<path d="M1771.37 273.367C1826.5 273.367 1871.19 229.177 1871.19 174.666C1871.19 120.155 1826.5 75.9658 1771.37 75.9658C1716.23 75.9658 1671.54 120.155 1671.54 174.666C1671.54 229.177 1716.23 273.367 1771.37 273.367Z" fill="url(#paint0_radial_525_334)"/>
</g>
<g filter="url(#filter1_d_525_334)">
<path d="M1764.68 314.366C1837.95 314.366 1897.35 255.633 1897.35 183.183C1897.35 110.732 1837.95 52 1764.68 52C1691.41 52 1632 110.732 1632 183.183C1632 255.633 1691.41 314.366 1764.68 314.366Z" fill="url(#paint1_radial_525_334)" shape-rendering="crispEdges"/>
<path d="M1764.68 314.366C1837.95 314.366 1897.35 255.633 1897.35 183.183C1897.35 110.732 1837.95 52 1764.68 52C1691.41 52 1632 110.732 1632 183.183C1632 255.633 1691.41 314.366 1764.68 314.366Z" stroke="#FFFE80" stroke-width="2" stroke-linecap="round" shape-rendering="crispEdges"/>
</g>
<path d="M1674.4 272.064C1675.82 270.801 1678.68 268.273 1678.68 261.398C1678.68 254.523 1675.82 243.3 1674.36 232.819C1672.9 222.339 1672.82 212.603 1674.43 203.534C1676.05 194.466 1679.36 186.068 1684.32 178.784C1689.28 171.5 1695.9 165.33 1703.3 162.655C1710.7 159.979 1718.9 160.797 1725.7 163.807C1732.51 166.818 1737.92 172.02 1742.17 176.703C1746.41 181.386 1749.49 185.548 1751.56 192.089C1753.63 198.63 1754.68 207.549 1753.1 215.019C1751.52 222.489 1747.31 228.509 1742.65 232.783C1738 237.057 1732.89 239.584 1727.88 240.513C1722.88 241.441 1718 240.774 1714.31 238.989C1710.63 237.205 1708.15 234.307 1707.17 229.698C1706.2 225.09 1706.72 218.773 1708.49 212.566C1710.26 206.36 1713.26 200.265 1717.17 195.285C1721.08 190.306 1725.89 186.441 1730.07 183.802C1734.24 181.163 1737.77 179.751 1742.05 178.599C1746.34 177.447 1751.37 176.555 1756.94 177.075C1762.5 177.596 1768.59 179.528 1773.48 182.13C1778.36 184.731 1782.05 188.001 1785.2 192.759C1788.36 197.516 1790.99 203.759 1791.59 210.634C1792.2 217.509 1790.77 225.017 1788.47 232.115C1786.18 239.213 1783.02 245.902 1779.38 251.291C1775.73 256.68 1771.6 260.768 1766.07 262.515C1760.55 264.262 1753.63 263.667 1749.42 261.437C1745.21 259.207 1743.71 255.342 1744.2 251.477C1744.68 247.611 1747.17 243.747 1750.33 239.808C1753.48 235.868 1757.32 231.855 1762.5 228.882C1767.69 225.909 1774.23 223.976 1780.43 223.605C1786.63 223.233 1792.5 224.422 1796.9 228.028C1801.29 231.632 1804.22 237.653 1804.6 244.194C1804.98 250.734 1802.8 257.795 1799.49 263.444C1796.18 269.093 1791.74 273.33 1785.88 276.898C1780.02 280.466 1772.73 283.364 1764.23 285.631C1755.74 287.897 1746.04 289.533 1736.07 289.57C1726.12 289.605 1715.89 288.047 1709.28 288.567C1702.66 289.087 1699.66 291.688 1697.74 292.803C1695.82 293.918 1694.99 293.546 1691.05 290.053C1687.1 286.559 1680.04 279.945 1676.5 276.637C1672.97 273.329 1672.97 273.328 1674.4 272.064Z" fill="url(#paint2_radial_525_334)" stroke="#FFFE80" stroke-width="2" stroke-linecap="round"/>
<path d="M1978.83 295.235C1970.73 295.235 1963.44 293.032 1956.96 288.628C1950.68 284.224 1945.72 278.117 1942.08 270.309C1938.63 262.501 1936.91 253.492 1936.91 243.281V72.1041C1936.91 68.7008 1937.92 65.9981 1939.95 63.996C1942.18 61.7937 1945.01 60.6926 1948.46 60.6926C1951.9 60.6926 1954.63 61.7937 1956.66 63.996C1958.88 65.9981 1960 68.7008 1960 72.1041V243.281C1960 251.89 1961.72 258.897 1965.16 264.303C1968.8 269.708 1973.36 272.411 1978.83 272.411H1986.42C1989.46 272.411 1991.89 273.512 1993.71 275.715C1995.53 277.717 1996.45 280.419 1996.45 283.823C1996.45 287.226 1995.13 290.03 1992.49 292.232C1990.07 294.234 1986.83 295.235 1982.78 295.235H1978.83ZM2064.55 295.235C2056.45 295.235 2049.16 293.032 2042.68 288.628C2036.4 284.224 2031.44 278.117 2027.8 270.309C2024.36 262.501 2022.63 253.492 2022.63 243.281V72.1041C2022.63 68.7008 2023.65 65.9981 2025.67 63.996C2027.9 61.7937 2030.74 60.6926 2034.17 60.6926C2037.62 60.6926 2040.35 61.7937 2042.37 63.996C2044.6 65.9981 2045.72 68.7008 2045.72 72.1041V243.281C2045.72 251.89 2047.44 258.897 2050.88 264.303C2054.53 269.708 2059.08 272.411 2064.55 272.411H2072.14C2075.18 272.411 2077.61 273.512 2079.43 275.715C2081.26 277.717 2082.17 280.419 2082.17 283.823C2082.17 287.226 2080.85 290.03 2078.22 292.232C2075.79 294.234 2072.55 295.235 2068.5 295.235H2064.55Z" fill="#F9EA8A"/>
<defs>
<filter id="filter0_f_525_334" x="1662.04" y="66.4628" width="218.655" height="216.407" filterUnits="userSpaceOnUse" color-interpolation-filters="sRGB">
<feFlood flood-opacity="0" result="BackgroundImageFix"/>
<feBlend mode="normal" in="SourceGraphic" in2="BackgroundImageFix" result="shape"/>
<feGaussianBlur stdDeviation="4.75149" result="effect1_foregroundBlur_525_334"/>
</filter>
<filter id="filter1_d_525_334" x="1627" y="51" width="275.354" height="272.366" filterUnits="userSpaceOnUse" color-interpolation-filters="sRGB">
<feFlood flood-opacity="0" result="BackgroundImageFix"/>
<feColorMatrix in="SourceAlpha" type="matrix" values="0 0 0 0 0 0 0 0 0 0 0 0 0 0 0 0 0 0 127 0" result="hardAlpha"/>
<feOffset dy="4"/>
<feGaussianBlur stdDeviation="2"/>
<feComposite in2="hardAlpha" operator="out"/>
<feColorMatrix type="matrix" values="0 0 0 0 0 0 0 0 0 0 0 0 0 0 0 0 0 0 0.25 0"/>
<feBlend mode="normal" in2="BackgroundImageFix" result="effect1_dropShadow_525_334"/>
<feBlend mode="normal" in="SourceGraphic" in2="effect1_dropShadow_525_334" result="shape"/>
</filter>
<radialGradient id="paint0_radial_525_334" cx="0" cy="0" r="1" gradientUnits="userSpaceOnUse" gradientTransform="translate(1771.33 174.652) scale(101.248 100.108)">
<stop offset="0.33003" stop-color="#FAFF85"/>
<stop offset="1" stop-color="#FFB700" stop-opacity="0.30189"/>
</radialGradient>
<radialGradient id="paint1_radial_525_334" cx="0" cy="0" r="1" gradientUnits="userSpaceOnUse" gradientTransform="translate(1764.62 183.164) scale(134.57 133.054)">
<stop offset="0.33003" stop-color="#FAFF85"/>
<stop offset="1" stop-color="#FFB700" stop-opacity="0.30189"/>
</radialGradient>
<radialGradient id="paint2_radial_525_334" cx="0" cy="0" r="1" gradientUnits="userSpaceOnUse" gradientTransform="translate(1738.91 227.19) scale(66.6361 67.1075)">
<stop offset="0.33003" stop-color="#FAFF85"/>
<stop offset="1" stop-color="#FFB700" stop-opacity="0.30189"/>
</radialGradient>
</defs>
</svg>
