<?xml version="1.0" encoding="UTF-8"?>
<!-- Created with Inkscape (http://www.inkscape.org/) -->
<svg width="300" height="80" version="1.1" viewBox="0 0 300 80" xml:space="preserve" xmlns="http://www.w3.org/2000/svg" xmlns:xlink="http://www.w3.org/1999/xlink"><defs><radialGradient id="radialGradient10" cx="250.4" cy="148.97" r="14.223" gradientTransform="translate(.35355 -113.14)" gradientUnits="userSpaceOnUse"><stop stop-color="#faff85" offset=".33003"/><stop stop-color="#ffb700" stop-opacity=".30189" offset="1"/></radialGradient><filter id="filter10" x="-.40659" y="-.40659" width="1.8132" height="1.8132" color-interpolation-filters="sRGB"><feGaussianBlur stdDeviation="4.7514892"/></filter><linearGradient id="linearGradient13" x1="159.97" x2="211.68" y1="153.92" y2="154.33" gradientTransform="translate(.35355 -113.14)" gradientUnits="userSpaceOnUse"><stop stop-color="#a337c0" offset="0"/><stop stop-color="#fdf288" offset="1"/></linearGradient><linearGradient id="linearGradient7" x1="291.48" x2="293.82" y1="152.8" y2="152.44" gradientTransform="translate(.35355 -113.14)" gradientUnits="userSpaceOnUse"><stop stop-color="#f9ea8a" offset="0"/><stop stop-color="#d59fa1" offset="1"/></linearGradient></defs><circle cx="250.76" cy="35.832" r="14.023" fill="url(#radialGradient10)" filter="url(#filter10)" style="paint-order:markers stroke fill"/><g stroke-linecap="round"><text x="2.4706266" y="53.309814" fill="#a337c0" font-family="Rubik" font-size="42.667px" stroke-width="5.6466" style="line-height:0;paint-order:markers stroke fill" xml:space="preserve"><tspan x="2.4706266" y="53.309814" font-family="Comfortaa">Library</tspan></text><text x="165.58652" y="55.680115" fill="url(#linearGradient13)" font-family="Comfortaa" font-size="42.667px" stroke-width="5.6466" style="line-height:0;paint-order:markers stroke fill" xml:space="preserve"><tspan x="165.58652" y="55.680115" fill="url(#linearGradient13)">Str   </tspan></text><circle cx="249.82" cy="37.042" r="18.638" fill="none" stroke="#fffe80" stroke-width="2" style="paint-order:markers stroke fill"/><path transform="translate(-.63211 -111.66)" d="m237.77 161.33c0.20064-0.17953 0.60193-0.53857 0.60192-1.5154 0-0.97683-0.40128-2.5714-0.6072-4.0604-0.20593-1.489-0.21649-2.8723 0.0105-4.1607 0.22705-1.2884 0.69168-2.4816 1.3887-3.5165 0.69698-1.0349 1.6263-1.9114 2.6664-2.2915 1.0402-0.38017 2.1912-0.26401 3.1469 0.16369 0.9557 0.42769 1.716 1.1669 2.3127 1.8322 0.59666 0.66529 1.0296 1.2566 1.32 2.186 0.29041 0.9293 0.43825 2.1965 0.21648 3.2578s-0.81313 1.9166-1.4679 2.5239c-0.65474 0.60721-1.3728 0.96625-2.0751 1.0982s-1.3886 0.037-1.9061-0.21649c-0.51745-0.25345-0.86593-0.66528-1.0032-1.32-0.13729-0.65474-0.0634-1.5523 0.1848-2.4341 0.24817-0.88178 0.67057-1.7477 1.2197-2.4552 0.54914-0.70753 1.225-1.2566 1.8111-1.6315 0.5861-0.37489 1.0824-0.57553 1.6844-0.73921 0.60193-0.16368 1.3094-0.2904 2.0909-0.21648 0.78146 0.0739 1.6368 0.34849 2.3232 0.7181 0.68642 0.3696 1.2038 0.83424 1.6474 1.5101s0.81313 1.5629 0.89761 2.5397c0.0845 0.97683-0.11616 2.0434-0.43825 3.0519s-0.7656 1.9589-1.2778 2.7245c-0.51217 0.76562-1.093 1.3464-1.8691 1.5946-0.77618 0.24817-1.7477 0.16369-2.3391-0.15312s-0.80257-0.86593-0.73392-1.4151c0.0686-0.54913 0.41712-1.0982 0.86065-1.6579s0.98209-1.1299 1.7108-1.5523 1.6474-0.69697 2.5186-0.74976c0.87122-0.0528 1.6949 0.11616 2.3127 0.62833 0.61778 0.51218 1.0296 1.3675 1.0824 2.2968 0.0528 0.92931-0.25344 1.9325-0.71809 2.7351-0.46465 0.80257-1.0877 1.4045-1.9114 1.9114s-1.848 0.91872-3.0413 1.2408-2.5555 0.55441-3.9548 0.55968c-1.3992 5e-3 -2.8354-0.21648-3.7647-0.14255-0.9293 0.0739-1.3517 0.44352-1.621 0.60192-0.26929 0.1584-0.38544 0.10561-0.93986-0.39073s-1.547-1.4362-2.0434-1.9061c-0.49632-0.46993-0.49631-0.46993-0.29567-0.64945z" fill="none" stroke="#fffe80" stroke-width=".4" style="paint-order:markers stroke fill"/><text x="271.10355" y="56.612915" fill="url(#linearGradient7)" font-family="Comfortaa" font-size="42.667px" stroke-linejoin="round" style="line-height:0;paint-order:markers fill stroke" xml:space="preserve"><tspan x="271.10355" y="56.612915" fill="url(#linearGradient7)">ll</tspan></text></g></svg>
