<svg width="182" height="182" viewBox="0 0 182 182" fill="none" xmlns="http://www.w3.org/2000/svg">
<g filter="url(#filter0_f_1_10)">
<path d="M95.539 152.872C132.937 152.872 163.254 122.555 163.254 85.1571C163.254 47.7592 132.937 17.4422 95.539 17.4422C58.1411 17.4422 27.8242 47.7592 27.8242 85.1571C27.8242 122.555 58.1411 152.872 95.539 152.872Z" fill="url(#paint0_radial_1_10)"/>
</g>
<path d="M91 181C140.706 181 181 140.706 181 91C181 41.2944 140.706 1 91 1C41.2944 1 1 41.2944 1 91C1 140.706 41.2944 181 91 181Z" stroke="#FFFE80" stroke-width="2" stroke-linecap="round"/>
<path d="M29.7601 151.979C30.7289 151.112 32.6667 149.378 32.6666 144.661C32.6666 139.944 30.7289 132.244 29.7346 125.054C28.7402 117.864 28.6892 111.184 29.7853 104.963C30.8817 98.7411 33.1253 92.9793 36.4911 87.9819C39.8567 82.9845 44.3442 78.7521 49.3667 76.9167C54.3897 75.0809 59.9477 75.6418 64.5626 77.7071C69.1775 79.7723 72.8489 83.3418 75.7303 86.5545C78.6114 89.767 80.7021 92.6224 82.1044 97.1103C83.5067 101.598 84.2206 107.717 83.1497 112.842C82.0788 117.967 79.2232 122.097 76.0615 125.029C72.8998 127.961 69.4324 129.695 66.0411 130.332C62.6498 130.969 59.3358 130.511 56.8369 129.287C54.3382 128.063 52.6554 126.074 51.9925 122.913C51.3296 119.751 51.6864 115.417 52.8849 111.159C54.0833 106.901 56.123 102.72 58.7746 99.3031C61.4263 95.8866 64.69 93.2352 67.5202 91.4249C70.3504 89.6146 72.7469 88.6458 75.6538 87.8554C78.5605 87.065 81.9768 86.453 85.7505 86.81C89.5241 87.1668 93.6544 88.4928 96.9689 90.2776C100.284 92.0624 102.782 94.306 104.924 97.5697C107.066 100.833 108.85 105.117 109.258 109.833C109.666 114.55 108.697 119.701 107.142 124.571C105.587 129.441 103.445 134.03 100.972 137.727C98.4986 141.424 95.6939 144.228 91.9462 145.427C88.1981 146.625 83.5068 146.217 80.6511 144.687C77.7953 143.158 76.7756 140.506 77.1071 137.854C77.4383 135.202 79.1213 132.551 81.263 129.848C83.4047 127.146 86.0053 124.392 89.5242 122.353C93.043 120.313 97.4792 118.987 101.686 118.732C105.893 118.477 109.871 119.293 112.854 121.766C115.837 124.24 117.826 128.37 118.08 132.857C118.335 137.345 116.857 142.189 114.613 146.064C112.369 149.94 109.361 152.847 105.383 155.294C101.406 157.742 96.4595 159.731 90.6972 161.286C84.9349 162.841 78.3571 163.963 71.6001 163.989C64.8436 164.013 57.9084 162.943 53.4209 163.3C48.9335 163.657 46.8938 165.442 45.5934 166.207C44.293 166.972 43.7321 166.717 41.0549 164.32C38.3777 161.923 33.5847 157.385 31.1877 155.116C28.791 152.847 28.7912 152.845 29.7601 151.979Z" stroke="#FFFE80" stroke-width="0.4" stroke-linecap="round"/>
<defs>
<filter id="filter0_f_1_10" x="18.3212" y="7.93923" width="154.436" height="154.436" filterUnits="userSpaceOnUse" color-interpolation-filters="sRGB">
<feFlood flood-opacity="0" result="BackgroundImageFix"/>
<feBlend mode="normal" in="SourceGraphic" in2="BackgroundImageFix" result="shape"/>
<feGaussianBlur stdDeviation="4.75149" result="effect1_foregroundBlur_1_10"/>
</filter>
<radialGradient id="paint0_radial_1_10" cx="0" cy="0" r="1" gradientUnits="userSpaceOnUse" gradientTransform="translate(95.5079 85.1474) scale(68.6806 68.6807)">
<stop offset="0.33003" stop-color="#FAFF85"/>
<stop offset="1" stop-color="#FFB700" stop-opacity="0.30189"/>
</radialGradient>
</defs>
</svg>
