<svg width="133" height="112" viewBox="0 0 133 112" fill="none" xmlns="http://www.w3.org/2000/svg">
<path d="M121.899 10.7248C118.698 7.64175 114.897 5.19606 110.714 3.52745C106.531 1.85884 102.048 1 97.52 1C92.9922 1 88.5087 1.85884 84.3257 3.52745C80.1428 5.19606 76.3423 7.64175 73.1414 10.7248L66.4983 17.1202L59.8553 10.7248C53.3897 4.50018 44.6204 1.00323 35.4766 1.00323C26.3329 1.00323 17.5636 4.50018 11.098 10.7248C4.63235 16.9494 1 25.3918 1 34.1947C1 42.9977 4.63235 51.4401 11.098 57.6647L17.741 64.0601L66.4983 111L115.256 64.0601L121.899 57.6647C125.101 54.5831 127.641 50.9243 129.375 46.8972C131.108 42.8702 132 38.5538 132 34.1947C132 29.8357 131.108 25.5193 129.375 21.4923C127.641 17.4652 125.101 13.8064 121.899 10.7248Z" fill="url(#paint0_linear_56_40)" stroke="white" stroke-width="2" stroke-linecap="round" stroke-linejoin="round"/>
<defs>
<linearGradient id="paint0_linear_56_40" x1="66.5" y1="20.7753" x2="66.5" y2="111" gradientUnits="userSpaceOnUse">
<stop stop-color="#ED2C56"/>
<stop offset="1" stop-color="#F52591"/>
</linearGradient>
</defs>
</svg>
